<?xml version="1.0" standalone="no"?>
<!DOCTYPE svg PUBLIC "-//W3C//DTD SVG 20010904//EN"
 "http://www.w3.org/TR/2001/REC-SVG-20010904/DTD/svg10.dtd">
<svg version="1.0" xmlns="http://www.w3.org/2000/svg"
 width="445.000000pt" height="416.000000pt" viewBox="0 0 445.000000 416.000000"
 preserveAspectRatio="xMidYMid meet">

<g transform="translate(0.000000,416.000000) scale(0.100000,-0.100000)"
fill="#000000" stroke="none">
<path d="M2055 4144 c-16 -2 -73 -9 -125 -15 -368 -41 -789 -220 -1071 -455
-391 -326 -622 -760 -655 -1231 -8 -115 1 -152 43 -174 39 -21 3917 -21 3956
0 39 21 51 68 42 175 -37 488 -267 912 -675 1247 -263 216 -644 380 -1015 435
-97 14 -439 27 -500 18z m366 -184 c555 -54 1036 -316 1350 -735 154 -205 263
-480 285 -718 l7 -77 -1837 0 -1836 0 0 39 c0 67 29 208 66 324 110 339 338
632 663 849 371 248 841 363 1302 318z"/>
<path d="M1692 3604 c-56 -39 -47 -124 14 -150 43 -18 88 -18 124 1 56 29 68
95 24 139 -23 22 -36 26 -83 26 -36 0 -65 -6 -79 -16z"/>
<path d="M2679 3607 c-9 -7 -21 -22 -27 -34 -43 -81 46 -155 149 -124 71 21
89 106 32 151 -30 23 -127 28 -154 7z"/>
<path d="M2173 3286 c-36 -31 -39 -95 -5 -128 19 -19 33 -23 88 -23 60 0 68 3
90 28 33 39 31 81 -5 118 -25 25 -37 29 -85 29 -43 0 -61 -5 -83 -24z"/>
<path d="M76 2095 c-19 -18 -26 -34 -26 -62 0 -36 9 -47 153 -189 220 -218
240 -234 281 -234 32 0 51 15 188 145 84 80 156 144 160 142 4 -1 75 -66 158
-144 135 -128 155 -143 186 -143 39 0 62 18 241 194 l102 99 148 -145 c86 -84
159 -147 175 -151 15 -4 39 -2 54 3 15 6 91 74 170 152 l143 141 146 -139 c80
-77 159 -145 175 -151 44 -19 74 -3 175 95 50 48 113 109 141 135 l51 48 149
-144 c84 -80 161 -147 176 -150 15 -4 37 -3 50 2 13 5 89 73 171 151 l147 142
150 -145 c83 -80 162 -148 176 -151 42 -11 82 19 268 200 162 158 176 174 176
206 0 66 -58 110 -116 88 -15 -6 -90 -71 -166 -145 l-140 -135 -152 143 c-87
82 -163 147 -179 151 -16 4 -37 1 -51 -6 -14 -7 -90 -75 -170 -151 l-146 -138
-148 144 c-84 82 -159 147 -174 150 -15 4 -39 2 -54 -3 -14 -6 -89 -72 -165
-147 l-138 -136 -143 138 c-79 75 -156 143 -171 151 -39 21 -82 5 -133 -47
-21 -22 -87 -85 -145 -139 l-106 -99 -151 144 c-202 193 -183 192 -373 13 -77
-73 -147 -137 -154 -143 -10 -7 -50 26 -158 132 -81 79 -157 145 -171 149 -50
12 -79 -7 -221 -147 -78 -76 -145 -139 -149 -139 -4 0 -77 65 -162 145 -135
128 -157 145 -187 145 -22 0 -43 -8 -61 -25z"/>
<path d="M186 1380 c-74 -23 -157 -113 -173 -189 -5 -20 -8 -106 -8 -191 0
-150 1 -157 28 -212 30 -61 81 -111 134 -130 32 -12 33 -14 33 -68 1 -212 124
-418 306 -513 139 -72 21 -67 1714 -67 1693 0 1587 -4 1724 68 182 95 305 301
306 512 0 54 1 56 33 68 53 19 104 69 134 130 27 56 28 61 28 227 0 152 -3
175 -21 216 -26 55 -77 108 -130 135 -38 19 -83 19 -2059 21 -1111 1 -2033 -3
-2049 -7z m4049 -195 c27 -26 30 -49 25 -230 -1 -80 -4 -93 -26 -115 l-24 -25
-1985 0 -1985 0 -27 28 -28 27 0 146 0 146 28 24 28 24 1985 0 1985 0 24 -25z
m-165 -584 c0 -161 -106 -326 -248 -383 l-57 -23 -1520 -3 c-1593 -3 -1560 -4
-1649 40 -54 27 -131 101 -162 157 -27 47 -54 151 -54 209 l0 32 1845 0 1845
0 0 -29z"/>
</g>
</svg>
