<?xml version="1.0" standalone="no"?>
<!DOCTYPE svg PUBLIC "-//W3C//DTD SVG 20010904//EN"
 "http://www.w3.org/TR/2001/REC-SVG-20010904/DTD/svg10.dtd">
<svg version="1.0" xmlns="http://www.w3.org/2000/svg"
 width="447.000000pt" height="428.000000pt" viewBox="0 0 447.000000 428.000000"
 preserveAspectRatio="xMidYMid meet">

<g transform="translate(0.000000,428.000000) scale(0.100000,-0.100000)"
fill="#000000" stroke="none">
<path d="M3050 3883 l0 -388 -357 357 c-347 347 -395 388 -450 388 -78 0 -51
26 -1165 -1088 -588 -587 -1068 -1071 -1068 -1077 0 -13 102 -115 115 -115 6
0 119 109 252 242 l243 243 0 -1133 0 -1132 -150 0 -150 0 0 -85 0 -85 1920 0
1920 0 0 85 0 85 -150 0 -150 0 0 1132 0 1133 245 -245 245 -245 60 60 60 60
-305 305 -305 305 0 793 0 792 -405 0 -405 0 0 -387z m640 -405 l0 -623 -235
235 -235 235 0 387 0 388 235 0 235 0 0 -622z m-723 -140 l723 -723 0 -1217 0
-1218 -1450 0 -1450 0 0 1218 0 1217 716 723 c394 397 721 722 727 722 7 0
337 -325 734 -722z"/>
<path d="M2098 3101 c-80 -26 -135 -61 -194 -123 -92 -97 -134 -199 -134 -323
0 -285 253 -504 536 -464 251 35 436 285 395 533 -31 186 -176 345 -352 385
-69 16 -187 12 -251 -8z m281 -186 c138 -76 195 -250 127 -389 -109 -223 -429
-223 -537 0 -30 62 -35 147 -15 219 14 46 29 70 74 115 72 72 121 91 222 87
61 -3 86 -9 129 -32z"/>
<path d="M2927 1883 c-4 -3 -7 -62 -7 -130 l0 -123 85 0 85 0 0 130 0 130 -78
0 c-43 0 -82 -3 -85 -7z"/>
<path d="M3310 1760 l0 -130 85 0 86 0 -3 128 -3 127 -82 3 -83 3 0 -131z"/>
<path d="M1000 1755 l0 -125 85 0 85 0 0 125 0 125 -85 0 -85 0 0 -125z"/>
<path d="M1390 1755 l0 -125 85 0 85 0 0 125 0 125 -85 0 -85 0 0 -125z"/>
<path d="M1770 1120 l0 -730 468 2 467 3 0 725 0 725 -467 3 -468 2 0 -730z
m768 -2 l-3 -553 -297 -3 -298 -2 0 555 0 555 300 0 300 0 -2 -552z"/>
<path d="M1000 1370 l0 -130 85 0 85 0 0 130 0 130 -85 0 -85 0 0 -130z"/>
<path d="M1390 1370 l0 -130 85 0 85 0 0 130 0 130 -85 0 -85 0 0 -130z"/>
<path d="M2920 1370 l0 -130 85 0 85 0 0 130 0 130 -85 0 -85 0 0 -130z"/>
<path d="M3310 1370 l0 -130 85 0 85 0 0 130 0 130 -85 0 -85 0 0 -130z"/>
</g>
</svg>
