<?xml version="1.0" standalone="no"?>
<!DOCTYPE svg PUBLIC "-//W3C//DTD SVG 20010904//EN"
 "http://www.w3.org/TR/2001/REC-SVG-20010904/DTD/svg10.dtd">
<svg version="1.0" xmlns="http://www.w3.org/2000/svg"
 width="379.000000pt" height="447.000000pt" viewBox="0 0 379.000000 447.000000"
 preserveAspectRatio="xMidYMid meet">

<g transform="translate(0.000000,447.000000) scale(0.100000,-0.100000)"
fill="#000000" stroke="none">
<path d="M993 4441 c-127 -44 -292 -183 -345 -291 -148 -307 90 -622 722 -954
l125 -66 -707 0 c-425 0 -717 -4 -732 -10 -56 -21 -57 -28 -54 -530 l3 -460
26 -25 c21 -21 38 -27 97 -32 l72 -6 2 -1003 3 -1004 28 -27 27 -28 1635 0
1635 0 27 28 28 27 3 1004 2 1003 72 6 c59 5 76 11 97 32 l26 25 3 448 c2 303
0 459 -8 484 -21 71 22 68 -852 68 l-783 0 153 79 c259 135 469 284 580 414
174 203 159 406 -41 554 -156 115 -314 140 -455 71 -107 -53 -224 -193 -304
-365 -52 -112 -130 -348 -158 -478 -11 -54 -23 -101 -25 -103 -2 -2 -6 12 -10
30 -16 72 -87 309 -126 418 -109 306 -268 550 -418 644 -103 66 -240 84 -348
47z m220 -181 c174 -82 358 -435 483 -924 14 -54 24 -100 22 -101 -5 -5 -297
138 -388 190 -263 151 -453 313 -515 439 -32 66 -36 145 -10 196 39 75 159
179 240 208 49 17 121 14 168 -8z m1450 -186 c92 -47 157 -122 157 -182 0
-107 -187 -286 -466 -448 -130 -74 -255 -137 -262 -130 -7 7 31 164 69 281 53
167 136 336 201 410 92 105 187 126 301 69z m-1145 -1431 l-3 -308 -667 -3
-668 -2 0 310 0 310 670 0 670 0 -2 -307z m592 -1078 l0 -1385 -205 0 -205 0
0 1385 0 1385 205 0 205 0 0 -1385z m1500 1075 l0 -310 -660 0 -660 0 0 310 0
310 660 0 660 0 0 -310z m-2092 -1472 l-3 -983 -565 0 -565 0 -3 983 -2 982
570 0 570 0 -2 -982z m1887 -3 l0 -980 -557 -3 -558 -2 0 985 0 985 558 -2
557 -3 0 -980z"/>
</g>
</svg>
